# Exported from ProBuilder
# http://www.procore3d.com/probuilder
# 1/2/2021 2:17:34 PM

mtllib ./Present01.mtl
o Present01

g Cube
v 0 0 0
v -1 0 0
v 0 1 0
v -1 1 0
v -1 0 0
v -1 0 -1
v -1 1 0
v -1 1 -1
v -1 0 -1
v 0 0 -1
v -1 1 -1
v 0 1 -1
v 0 0 -1
v 0 0 0
v 0 1 -1
v 0 1 0
v 0 0 -1
v -1 0 -1
v 0 0 0
v -1 0 0
v 0 1 0
v -1 1 0
v -0.4515302 1.0001 -0.4515302
v -0.5484698 1.0001 -0.4515302
v 0 1 -1
v 0 1 0
v -0.4515302 1.0001 -0.5484698
v -0.4515302 1.0001 -0.4515302
v -1 1 0
v -1 1 -1
v -0.5484698 1.0001 -0.4515302
v -0.5484698 1.0001 -0.5484698
v -1 1 -1
v 0 1 -1
v -0.5484698 1.0001 -0.5484698
v -0.4515302 1.0001 -0.5484698
v -0.4515302 1.0001 -0.4515302
v -0.5484698 1.0001 -0.4515302
v -0.2102509 1.076485 -0.4515302
v -0.7897491 1.076485 -0.4515302
v -0.4515302 1.0001 -0.5484698
v -0.4515302 1.0001 -0.4515302
v -0.2102509 1.076485 -0.5484698
v -0.2102509 1.076485 -0.4515302
v -0.5484698 1.0001 -0.4515302
v -0.5484698 1.0001 -0.5484698
v -0.7897491 1.076485 -0.4515302
v -0.7897491 1.076485 -0.5484698
v -0.5484698 1.0001 -0.5484698
v -0.4515302 1.0001 -0.5484698
v -0.7897491 1.076485 -0.5484698
v -0.2102509 1.076485 -0.5484698
v -0.3551255 1.146764 -0.4757651
v -0.4287107 1.27092 -0.5
v -0.3574214 1.27092 -0.5
v -0.3574214 1.27092 -0.4757651
v -0.4287107 1.27092 -0.4757651
v -0.3574214 1.27092 -0.4757651
v -0.3574214 1.27092 -0.4515302
v -0.4287107 1.27092 -0.4515302
v -0.4287107 1.27092 -0.4757651
v -0.3551255 1.146764 -0.4515302
v -0.6425786 1.27092 -0.5
v -0.5712893 1.27092 -0.5
v -0.5712893 1.27092 -0.4757651
v -0.6425786 1.27092 -0.4757651
v -0.5 1.146764 -0.4757651
v -0.6448746 1.146764 -0.4757651
v -0.5 1.146764 -0.4515302
v -0.6448746 1.146764 -0.4515302
v -0.5712893 1.27092 -0.4515302
v -0.6425786 1.27092 -0.4515302
v -0.6425786 1.27092 -0.4757651
v -0.5712893 1.27092 -0.4757651
v -0.6425786 1.27092 -0.5484698
v -0.5712893 1.27092 -0.5484698
v -0.5712893 1.27092 -0.5242349
v -0.6425786 1.27092 -0.5242349
v -0.6448746 1.146764 -0.5484698
v -0.6448746 1.146764 -0.5242349
v -0.5 1.146764 -0.5
v -0.6448746 1.146764 -0.5
v -0.5712893 1.27092 -0.5
v -0.6425786 1.27092 -0.5
v -0.6425786 1.27092 -0.5242349
v -0.5712893 1.27092 -0.5242349
v -0.5 1.146764 -0.5484698
v -0.3551255 1.146764 -0.5484698
v -0.3551255 1.146764 -0.5242349
v -0.5 1.146764 -0.5242349
v -0.4287107 1.27092 -0.5484698
v -0.3574214 1.27092 -0.5484698
v -0.3574214 1.27092 -0.5242349
v -0.4287107 1.27092 -0.5242349
v -0.3574214 1.27092 -0.5242349
v -0.3574214 1.27092 -0.5
v -0.4287107 1.27092 -0.5
v -0.4287107 1.27092 -0.5242349
v -0.3551255 1.146764 -0.5
v -0.2102509 1.146764 -0.4515302
v -0.2102509 1.076485 -0.4515302
v -0.7897491 1.076485 -0.4515302
v -0.7897491 1.146764 -0.4515302
v -0.6448746 1.146764 -0.4515302
v -0.5 1.146764 -0.4515302
v -0.3551255 1.146764 -0.4515302
v -0.2102509 1.146764 -0.5
v -0.2102509 1.146764 -0.5242349
v -0.2102509 1.146764 -0.5484698
v -0.2102509 1.076485 -0.5484698
v -0.2102509 1.076485 -0.4515302
v -0.2102509 1.146764 -0.4515302
v -0.2102509 1.146764 -0.4757651
v -0.7897491 1.146764 -0.4515302
v -0.7897491 1.076485 -0.4515302
v -0.7897491 1.076485 -0.5484698
v -0.7897491 1.146764 -0.5484698
v -0.7897491 1.146764 -0.5242349
v -0.7897491 1.146764 -0.5
v -0.7897491 1.146764 -0.4757651
v -0.5 1.146764 -0.5484698
v -0.6448746 1.146764 -0.5484698
v -0.7897491 1.146764 -0.5484698
v -0.7897491 1.076485 -0.5484698
v -0.2102509 1.076485 -0.5484698
v -0.2102509 1.146764 -0.5484698
v -0.3551255 1.146764 -0.5484698
v -0.3551255 1.146764 -0.4757651
v -0.2102509 1.146764 -0.4757651
v -0.4287107 1.27092 -0.4757651
v -0.3574214 1.27092 -0.4757651
v -0.2102509 1.146764 -0.4757651
v -0.2102509 1.146764 -0.4515302
v -0.3574214 1.27092 -0.4757651
v -0.3574214 1.27092 -0.4515302
v -0.3551255 1.146764 -0.4515302
v -0.3551255 1.146764 -0.4757651
v -0.4287107 1.27092 -0.4515302
v -0.4287107 1.27092 -0.4757651
v -0.2102509 1.146764 -0.4515302
v -0.3551255 1.146764 -0.4515302
v -0.3574214 1.27092 -0.4515302
v -0.4287107 1.27092 -0.4515302
v -0.3551255 1.146764 -0.5484698
v -0.2102509 1.146764 -0.5484698
v -0.4287107 1.27092 -0.5484698
v -0.3574214 1.27092 -0.5484698
v -0.2102509 1.146764 -0.5484698
v -0.2102509 1.146764 -0.5242349
v -0.3574214 1.27092 -0.5484698
v -0.3574214 1.27092 -0.5242349
v -0.3551255 1.146764 -0.5242349
v -0.3551255 1.146764 -0.5484698
v -0.4287107 1.27092 -0.5242349
v -0.4287107 1.27092 -0.5484698
v -0.2102509 1.146764 -0.5242349
v -0.3551255 1.146764 -0.5242349
v -0.3574214 1.27092 -0.5242349
v -0.4287107 1.27092 -0.5242349
v -0.3551255 1.146764 -0.5
v -0.2102509 1.146764 -0.5
v -0.4287107 1.27092 -0.5
v -0.3574214 1.27092 -0.5
v -0.2102509 1.146764 -0.5
v -0.2102509 1.146764 -0.4757651
v -0.3574214 1.27092 -0.5
v -0.3574214 1.27092 -0.4757651
v -0.3551255 1.146764 -0.4757651
v -0.3551255 1.146764 -0.5
v -0.4287107 1.27092 -0.4757651
v -0.4287107 1.27092 -0.5
v -0.2102509 1.146764 -0.4757651
v -0.3551255 1.146764 -0.4757651
v -0.3574214 1.27092 -0.4757651
v -0.4287107 1.27092 -0.4757651
v -0.3551255 1.146764 -0.5242349
v -0.2102509 1.146764 -0.5242349
v -0.4287107 1.27092 -0.5242349
v -0.3574214 1.27092 -0.5242349
v -0.2102509 1.146764 -0.5242349
v -0.2102509 1.146764 -0.5
v -0.3574214 1.27092 -0.5242349
v -0.3574214 1.27092 -0.5
v -0.3551255 1.146764 -0.5
v -0.3551255 1.146764 -0.5242349
v -0.4287107 1.27092 -0.5
v -0.4287107 1.27092 -0.5242349
v -0.2102509 1.146764 -0.5
v -0.3551255 1.146764 -0.5
v -0.3574214 1.27092 -0.5
v -0.4287107 1.27092 -0.5
v -0.7897491 1.146764 -0.5242349
v -0.6448746 1.146764 -0.5242349
v -0.6425786 1.27092 -0.5242349
v -0.5712893 1.27092 -0.5242349
v -0.7897491 1.146764 -0.5
v -0.7897491 1.146764 -0.5242349
v -0.6425786 1.27092 -0.5
v -0.6425786 1.27092 -0.5242349
v -0.6448746 1.146764 -0.5242349
v -0.6448746 1.146764 -0.5
v -0.5712893 1.27092 -0.5242349
v -0.5712893 1.27092 -0.5
v -0.6448746 1.146764 -0.5
v -0.7897491 1.146764 -0.5
v -0.5712893 1.27092 -0.5
v -0.6425786 1.27092 -0.5
v -0.7897491 1.146764 -0.5484698
v -0.6448746 1.146764 -0.5484698
v -0.6425786 1.27092 -0.5484698
v -0.5712893 1.27092 -0.5484698
v -0.7897491 1.146764 -0.5242349
v -0.7897491 1.146764 -0.5484698
v -0.6425786 1.27092 -0.5242349
v -0.6425786 1.27092 -0.5484698
v -0.6448746 1.146764 -0.5484698
v -0.6448746 1.146764 -0.5242349
v -0.5712893 1.27092 -0.5484698
v -0.5712893 1.27092 -0.5242349
v -0.6448746 1.146764 -0.5242349
v -0.7897491 1.146764 -0.5242349
v -0.5712893 1.27092 -0.5242349
v -0.6425786 1.27092 -0.5242349
v -0.7897491 1.146764 -0.5
v -0.6448746 1.146764 -0.5
v -0.6425786 1.27092 -0.5
v -0.5712893 1.27092 -0.5
v -0.7897491 1.146764 -0.4757651
v -0.7897491 1.146764 -0.5
v -0.6425786 1.27092 -0.4757651
v -0.6425786 1.27092 -0.5
v -0.6448746 1.146764 -0.5
v -0.6448746 1.146764 -0.4757651
v -0.5712893 1.27092 -0.5
v -0.5712893 1.27092 -0.4757651
v -0.6448746 1.146764 -0.4757651
v -0.7897491 1.146764 -0.4757651
v -0.5712893 1.27092 -0.4757651
v -0.6425786 1.27092 -0.4757651
v -0.7897491 1.146764 -0.4757651
v -0.6448746 1.146764 -0.4757651
v -0.6425786 1.27092 -0.4757651
v -0.5712893 1.27092 -0.4757651
v -0.7897491 1.146764 -0.4515302
v -0.7897491 1.146764 -0.4757651
v -0.6425786 1.27092 -0.4515302
v -0.6425786 1.27092 -0.4757651
v -0.6448746 1.146764 -0.4757651
v -0.6448746 1.146764 -0.4515302
v -0.5712893 1.27092 -0.4757651
v -0.5712893 1.27092 -0.4515302
v -0.6448746 1.146764 -0.4515302
v -0.7897491 1.146764 -0.4515302
v -0.5712893 1.27092 -0.4515302
v -0.6425786 1.27092 -0.4515302

vn 0 0 1
vn 0 0 1
vn 0 0 1
vn 0 0 1
vn -1 0 0
vn -1 0 0
vn -1 0 0
vn -1 0 0
vn 0 0 -1
vn 0 0 -1
vn 0 0 -1
vn 0 0 -1
vn 1 0 0
vn 1 0 0
vn 1 0 0
vn 1 0 0
vn 0 -1 0
vn 0 -1 0
vn 0 -1 0
vn 0 -1 0
vn 0 0.9999999 0.0002215058
vn 0 1 0.0002215059
vn 0 0.9999999 0.0002215058
vn 0 0.9999999 0.0002215058
vn 0.0002215058 0.9999999 0
vn 0.0002215059 1 0
vn 0.0002215058 0.9999999 0
vn 0.0002215058 0.9999999 0
vn -0.0002215058 0.9999999 0
vn -0.0002215059 1 0
vn -0.0002215058 0.9999999 0
vn -0.0002215058 0.9999999 0
vn 0 0.9999999 -0.0002215058
vn 0 1 -0.0002215059
vn 0 0.9999999 -0.0002215058
vn 0 0.9999999 -0.0002215058
vn 0 0 0.9999999
vn 0 0 1
vn 0 0 1
vn 0 0 0.9999999
vn 0.3018191 -0.9533651 0
vn 0.3018191 -0.9533651 0
vn 0.3018191 -0.9533651 0
vn 0.3018191 -0.9533651 0
vn -0.3018191 -0.9533651 0
vn -0.3018191 -0.9533651 0
vn -0.3018191 -0.9533651 0
vn -0.3018191 -0.9533651 0
vn 0 0 -0.9999999
vn 0 0 -1
vn 0 0 -1
vn 0 0 -0.9999999
vn 0 1 0
vn 0 1 0
vn 0 1 0
vn 0 1 0
vn 0 1 0
vn 0 1 0
vn 0 1 0
vn 0 1 0
vn 0 1 0
vn 0 1 0
vn 0 1 0
vn 0 1 0
vn 0 1 0
vn 0 1 0
vn 0 1 0
vn 0 0.9999999 0
vn 0 1 0
vn 0 1 0
vn 0 1 0
vn 0 1 0
vn 0 1 0
vn 0 1 0
vn 0 1 0
vn 0 1 0
vn 0 1 0
vn 0 1 0
vn 0 1 0
vn 0 0.9999999 0
vn 0 1 0
vn 0 0.9999999 0
vn 0 1 0
vn 0 1 0
vn 0 1 0
vn 0 1 0
vn 0 1 0
vn 0 1 0
vn 0 1 0
vn 0 1 0
vn 0 1 0
vn 0 1 0
vn 0 1 0
vn 0 1 0
vn 0 1 0
vn 0 1 0
vn 0 1 0
vn 0 1 0
vn 0 1 0
vn 0 0 1
vn 0 0 1
vn 0 0 1
vn 0 0 1
vn 0 0 1
vn 0 0 1
vn 0 0 1
vn 1 0 0
vn 1 0 0
vn 1 0 0
vn 1 0 0
vn 1 0 0
vn 1 0 0
vn 1 0 0
vn -1 0 0
vn -1 0 0
vn -1 0 0
vn -1 0 0
vn -1 0 0
vn -1 0 0
vn -1 0 0
vn 0 0 -1
vn 0 0 -1
vn 0 0 -1
vn 0 0 -1
vn 0 0 -1
vn 0 0 -1
vn 0 0 -1
vn 0 0 -1
vn 0 0 -1
vn 0 0 -1
vn 0 0 -1
vn 0.6448126 0.7643408 0
vn 0.6448126 0.7643408 0
vn 0.6448126 0.7643408 0
vn 0.6448126 0.7643408 0
vn -0.8602569 -0.5098608 0
vn -0.8602569 -0.5098608 0
vn -0.8602569 -0.5098608 0
vn -0.8602569 -0.5098608 0
vn 0 0 1
vn 0 0 1
vn 0 0 1
vn 0 0 1
vn 0 0 -1
vn 0 0 -1
vn 0 0 -1
vn 0 0 -1
vn 0.6448126 0.7643408 0
vn 0.6448126 0.7643408 0
vn 0.6448126 0.7643408 0
vn 0.6448126 0.7643408 0
vn -0.8602569 -0.5098608 0
vn -0.8602569 -0.5098608 0
vn -0.8602569 -0.5098608 0
vn -0.8602569 -0.5098608 0
vn 0 0 1
vn 0 0 1
vn 0 0 1
vn 0 0 1
vn 0 0 -1
vn 0 0 -1
vn 0 0 -1
vn 0 0 -1
vn 0.6448126 0.7643408 0
vn 0.6448126 0.7643408 0
vn 0.6448126 0.7643408 0
vn 0.6448126 0.7643408 0
vn -0.8602569 -0.5098608 0
vn -0.8602569 -0.5098608 0
vn -0.8602569 -0.5098608 0
vn -0.8602569 -0.5098608 0
vn 0 0 1
vn 0 0 1
vn 0 0 1
vn 0 0 1
vn 0 0 -1
vn 0 0 -1
vn 0 0 -1
vn 0 0 -1
vn 0.6448126 0.7643408 0
vn 0.6448126 0.7643408 0
vn 0.6448126 0.7643408 0
vn 0.6448126 0.7643408 0
vn -0.8602569 -0.5098608 0
vn -0.8602569 -0.5098608 0
vn -0.8602569 -0.5098608 0
vn -0.8602569 -0.5098608 0
vn 0 0 1
vn 0 0 1
vn 0 0 1
vn 0 0 1
vn 0 0 -1
vn 0 0 -1
vn 0 0 -1
vn 0 0 -1
vn -0.6448126 0.7643407 0
vn -0.6448126 0.7643407 0
vn -0.6448126 0.7643407 0
vn -0.6448126 0.7643407 0
vn 0.8602569 -0.509861 0
vn 0.8602569 -0.509861 0
vn 0.8602569 -0.509861 0
vn 0.8602569 -0.509861 0
vn 0 0 1
vn 0 0 1
vn 0 0 1
vn 0 0 1
vn 0 0 -1
vn 0 0 -1
vn 0 0 -1
vn 0 0 -1
vn -0.6448126 0.7643407 0
vn -0.6448126 0.7643407 0
vn -0.6448126 0.7643407 0
vn -0.6448126 0.7643407 0
vn 0.8602569 -0.509861 0
vn 0.8602569 -0.509861 0
vn 0.8602569 -0.509861 0
vn 0.8602569 -0.509861 0
vn 0 0 1
vn 0 0 1
vn 0 0 1
vn 0 0 1
vn 0 0 -1
vn 0 0 -1
vn 0 0 -1
vn 0 0 -1
vn -0.6448126 0.7643407 0
vn -0.6448126 0.7643407 0
vn -0.6448126 0.7643407 0
vn -0.6448126 0.7643407 0
vn 0.8602569 -0.509861 0
vn 0.8602569 -0.509861 0
vn 0.8602569 -0.509861 0
vn 0.8602569 -0.509861 0
vn 0 0 1
vn 0 0 1
vn 0 0 1
vn 0 0 1
vn 0 0 -1
vn 0 0 -1
vn 0 0 -1
vn 0 0 -1
vn -0.6448126 0.7643407 0
vn -0.6448126 0.7643407 0
vn -0.6448126 0.7643407 0
vn -0.6448126 0.7643407 0
vn 0.8602569 -0.509861 0
vn 0.8602569 -0.509861 0
vn 0.8602569 -0.509861 0
vn 0.8602569 -0.509861 0
vn 0 0 1
vn 0 0 1
vn 0 0 1
vn 0 0 1

vt 0.4313506 0.2626996
vt 0.4313506 0.1313498
vt 0.3000008 0.2626996
vt 0.3000008 0.1313498
vt 0.4313506 0.1313498
vt 0.4313506 0
vt 0.3000008 0.1313498
vt 0.3000008 0
vt 0.2691754 0.2813087
vt 0.1378256 0.2813087
vt 0.2691754 0.4126585
vt 0.1378256 0.4126585
vt 0.4313506 0.3940494
vt 0.4313506 0.2626996
vt 0.3000008 0.3940494
vt 0.3000008 0.2626996
vt 0.4313506 0.3940494
vt 0.5627005 0.3940494
vt 0.4313506 0.2626996
vt 0.5627005 0.2626996
vt 0 1
vt 0.1313498 1
vt 0.05930841 0.9406916
vt 0.0720414 0.9406916
vt 0 0.8686502
vt 0 1
vt 0.05930841 0.9279585
vt 0.05930841 0.9406916
vt 0.1313498 1
vt 0.1313498 0.8686502
vt 0.07204137 0.9406916
vt 0.07204137 0.9279585
vt 0.1313498 0.8686501
vt 0 0.8686502
vt 0.0720414 0.9279585
vt 0.05930841 0.9279585
vt 0.19741 0.7188265
vt 0.184677 0.7188265
vt 0.229102 0.7288597
vt 0.152985 0.7288597
vt 0.2157765 0.6416807
vt 0.2157765 0.6544137
vt 0.2490188 0.6416807
vt 0.2490188 0.6544137
vt 0.1483888 0.5281551
vt 0.1483888 0.5154222
vt 0.1151466 0.5281551
vt 0.1151466 0.5154222
vt 0.3047127 0.845085
vt 0.2919797 0.845085
vt 0.3364046 0.8551182
vt 0.2602877 0.8551182
vt 0.2793169 0.6512304
vt 0.2889823 0.6480472
vt 0.2796184 0.6480472
vt 0.2796184 0.6512304
vt 0.2889823 0.6512304
vt 0.2796184 0.6512304
vt 0.2796184 0.6544137
vt 0.2889823 0.6544137
vt 0.2889823 0.6512304
vt 0.2793169 0.6544137
vt 0.3170738 0.6480472
vt 0.30771 0.6480472
vt 0.30771 0.6512304
vt 0.3170738 0.6512304
vt 0.2983461 0.6512304
vt 0.3173754 0.6512304
vt 0.2983461 0.6544137
vt 0.3173754 0.6544137
vt 0.30771 0.6544137
vt 0.3170738 0.6544137
vt 0.3170738 0.6512304
vt 0.30771 0.6512304
vt 0.3170738 0.6416807
vt 0.30771 0.6416807
vt 0.30771 0.644864
vt 0.3170738 0.644864
vt 0.3173754 0.6416807
vt 0.3173754 0.644864
vt 0.2983461 0.6480472
vt 0.3173754 0.6480472
vt 0.30771 0.6480472
vt 0.3170738 0.6480472
vt 0.3170738 0.644864
vt 0.30771 0.644864
vt 0.2983461 0.6416807
vt 0.2793169 0.6416807
vt 0.2793169 0.644864
vt 0.2983461 0.644864
vt 0.2889823 0.6416807
vt 0.2796184 0.6416807
vt 0.2796184 0.644864
vt 0.2889823 0.644864
vt 0.2796184 0.644864
vt 0.2796184 0.6480472
vt 0.2889823 0.6480472
vt 0.2889823 0.644864
vt 0.2793169 0.6480472
vt 0.229102 0.7380908
vt 0.229102 0.7288597
vt 0.152985 0.7288597
vt 0.152985 0.7380908
vt 0.1720143 0.7380908
vt 0.1910435 0.7380908
vt 0.2100727 0.7380908
vt 0.2983461 0.8643493
vt 0.3015294 0.8643493
vt 0.3047127 0.8643493
vt 0.3047127 0.8551182
vt 0.2919797 0.8551182
vt 0.2919797 0.8643493
vt 0.2951629 0.8643493
vt 0.19741 0.7380908
vt 0.19741 0.7288597
vt 0.184677 0.7288597
vt 0.184677 0.7380908
vt 0.1878603 0.7380908
vt 0.1910435 0.7380908
vt 0.1942268 0.7380908
vt 0.2983461 0.8643493
vt 0.3173754 0.8643493
vt 0.3364046 0.8643493
vt 0.3364046 0.8551182
vt 0.2602877 0.8551182
vt 0.2602877 0.8643493
vt 0.2793169 0.8643493
vt 0.2793169 0.8643493
vt 0.2602877 0.8643493
vt 0.2889823 0.8806571
vt 0.2796184 0.8806571
vt 0.3509059 0.6512304
vt 0.3509059 0.6544137
vt 0.3761967 0.6512304
vt 0.3761967 0.6544137
vt 0.19741 0.7408245
vt 0.1942268 0.7408245
vt 0.19741 0.7597814
vt 0.1942268 0.7597814
vt 0.229102 0.7380908
vt 0.2100727 0.7380908
vt 0.2097712 0.7543987
vt 0.2004074 0.7543987
vt 0.2793169 0.8643493
vt 0.2602877 0.8643493
vt 0.2889823 0.8806571
vt 0.2796184 0.8806571
vt 0.3509059 0.6416807
vt 0.3509059 0.644864
vt 0.3761967 0.6416807
vt 0.3761967 0.644864
vt 0.1878603 0.7408245
vt 0.184677 0.7408245
vt 0.1878603 0.7597814
vt 0.184677 0.7597814
vt 0.229102 0.7380908
vt 0.2100727 0.7380908
vt 0.2097712 0.7543987
vt 0.2004074 0.7543987
vt 0.2793169 0.8643493
vt 0.2602877 0.8643493
vt 0.2889823 0.8806571
vt 0.2796184 0.8806571
vt 0.3509059 0.6480472
vt 0.3509059 0.6512304
vt 0.3761967 0.6480472
vt 0.3761967 0.6512304
vt 0.1942268 0.7408245
vt 0.1910435 0.7408245
vt 0.1942268 0.7597814
vt 0.1910435 0.7597814
vt 0.229102 0.7380908
vt 0.2100727 0.7380908
vt 0.2097712 0.7543987
vt 0.2004074 0.7543987
vt 0.2793169 0.8643493
vt 0.2602877 0.8643493
vt 0.2889823 0.8806571
vt 0.2796184 0.8806571
vt 0.3509059 0.644864
vt 0.3509059 0.6480472
vt 0.3761967 0.644864
vt 0.3761967 0.6480472
vt 0.1910435 0.7408245
vt 0.1878603 0.7408245
vt 0.1910435 0.7597814
vt 0.1878603 0.7597814
vt 0.229102 0.7380908
vt 0.2100727 0.7380908
vt 0.2097712 0.7543987
vt 0.2004074 0.7543987
vt 0.3364046 0.8643493
vt 0.3173754 0.8643493
vt 0.3170738 0.8806571
vt 0.30771 0.8806571
vt 0.2388797 0.5217887
vt 0.2388797 0.5186054
vt 0.2135889 0.5217887
vt 0.2135889 0.5186054
vt 0.3015294 0.8001128
vt 0.2983461 0.8001128
vt 0.3015294 0.8190699
vt 0.2983461 0.8190699
vt 0.1720143 0.7380908
vt 0.152985 0.7380908
vt 0.1816797 0.7543987
vt 0.1723158 0.7543987
vt 0.3364046 0.8643493
vt 0.3173754 0.8643493
vt 0.3170738 0.8806571
vt 0.30771 0.8806571
vt 0.2388797 0.5186054
vt 0.2388797 0.5154222
vt 0.2135889 0.5186054
vt 0.2135889 0.5154222
vt 0.3047127 0.8001128
vt 0.3015294 0.8001128
vt 0.3047127 0.8190699
vt 0.3015294 0.8190699
vt 0.1720143 0.7380908
vt 0.152985 0.7380908
vt 0.1816797 0.7543987
vt 0.1723158 0.7543987
vt 0.3364046 0.8643493
vt 0.3173754 0.8643493
vt 0.3170738 0.8806571
vt 0.30771 0.8806571
vt 0.2388797 0.524972
vt 0.2388797 0.5217887
vt 0.2135889 0.524972
vt 0.2135889 0.5217887
vt 0.2983461 0.8001128
vt 0.2951629 0.8001128
vt 0.2983461 0.8190699
vt 0.2951629 0.8190699
vt 0.1720143 0.7380908
vt 0.152985 0.7380908
vt 0.1816797 0.7543987
vt 0.1723158 0.7543987
vt 0.3364046 0.8643493
vt 0.3173754 0.8643493
vt 0.3170738 0.8806571
vt 0.30771 0.8806571
vt 0.2388797 0.5281551
vt 0.2388797 0.524972
vt 0.2135889 0.5281551
vt 0.2135889 0.524972
vt 0.2951629 0.8001128
vt 0.2919797 0.8001128
vt 0.2951629 0.8190699
vt 0.2919797 0.8190699
vt 0.1720143 0.7380908
vt 0.152985 0.7380908
vt 0.1816797 0.7543987
vt 0.1723158 0.7543987

g Cube_0
usemtl Default_Prototype
f 3/3/3 4/4/4 2/2/2 1/1/1
f 7/7/7 8/8/8 6/6/6 5/5/5
f 11/11/11 12/12/12 10/10/10 9/9/9
f 15/15/15 16/16/16 14/14/14 13/13/13
f 19/19/19 20/20/20 18/18/18 17/17/17
f 23/23/23 24/24/24 22/22/22 21/21/21
f 27/27/27 28/28/28 26/26/26 25/25/25
f 31/31/31 32/32/32 30/30/30 29/29/29
f 35/35/35 36/36/36 34/34/34 33/33/33
f 39/39/39 40/40/40 38/38/38 37/37/37
f 43/43/43 44/44/44 42/42/42 41/41/41
f 47/47/47 48/48/48 46/46/46 45/45/45
f 51/51/51 52/52/52 50/50/50 49/49/49
f 130/130/130 131/131/131 129/129/129 128/128/128
f 134/134/134 135/135/135 133/133/133 132/132/132
f 138/138/138 139/139/139 137/137/137 136/136/136
f 142/142/142 143/143/143 141/141/141 140/140/140
f 146/146/146 147/147/147 145/145/145 144/144/144
f 150/150/150 151/151/151 149/149/149 148/148/148
f 154/154/154 155/155/155 153/153/153 152/152/152
f 158/158/158 159/159/159 157/157/157 156/156/156
f 162/162/162 163/163/163 161/161/161 160/160/160
f 166/166/166 167/167/167 165/165/165 164/164/164
f 170/170/170 171/171/171 169/169/169 168/168/168
f 174/174/174 175/175/175 173/173/173 172/172/172
f 178/178/178 179/179/179 177/177/177 176/176/176
f 182/182/182 183/183/183 181/181/181 180/180/180
f 186/186/186 187/187/187 185/185/185 184/184/184
f 190/190/190 191/191/191 189/189/189 188/188/188
f 194/194/194 195/195/195 193/193/193 192/192/192
f 198/198/198 199/199/199 197/197/197 196/196/196
f 202/202/202 203/203/203 201/201/201 200/200/200
f 206/206/206 207/207/207 205/205/205 204/204/204
f 210/210/210 211/211/211 209/209/209 208/208/208
f 214/214/214 215/215/215 213/213/213 212/212/212
f 218/218/218 219/219/219 217/217/217 216/216/216
f 222/222/222 223/223/223 221/221/221 220/220/220
f 226/226/226 227/227/227 225/225/225 224/224/224
f 230/230/230 231/231/231 229/229/229 228/228/228
f 234/234/234 235/235/235 233/233/233 232/232/232
f 238/238/238 239/239/239 237/237/237 236/236/236
f 242/242/242 243/243/243 241/241/241 240/240/240
f 246/246/246 247/247/247 245/245/245 244/244/244
f 250/250/250 251/251/251 249/249/249 248/248/248
f 254/254/254 255/255/255 253/253/253 252/252/252

g Cube_1
usemtl Default_Prototype
f 106/106/106 101/101/101 100/100/100
f 106/106/106 105/105/105 101/101/101
f 101/101/101 105/105/105 102/102/102
f 102/102/102 105/105/105 104/104/104
f 104/104/104 103/103/103 102/102/102
f 110/110/110 109/109/109 108/108/108
f 108/108/108 107/107/107 110/110/110
f 110/110/110 107/107/107 111/111/111
f 111/111/111 107/107/107 113/113/113
f 112/112/112 111/111/111 113/113/113
f 120/120/120 115/115/115 114/114/114
f 120/120/120 119/119/119 115/115/115
f 115/115/115 119/119/119 116/116/116
f 116/116/116 119/119/119 118/118/118
f 118/118/118 117/117/117 116/116/116
f 124/124/124 123/123/123 122/122/122
f 122/122/122 121/121/121 124/124/124
f 124/124/124 121/121/121 125/125/125
f 125/125/125 121/121/121 127/127/127
f 126/126/126 125/125/125 127/127/127
f 89/89/89 88/88/88 87/87/87
f 89/89/89 87/87/87 90/90/90
f 80/80/80 87/87/87 79/79/79
f 80/80/80 90/90/90 87/87/87
f 82/82/82 90/90/90 80/80/80
f 82/82/82 81/81/81 90/90/90
f 99/99/99 89/89/89 90/90/90
f 99/99/99 90/90/90 81/81/81
f 68/68/68 81/81/81 82/82/82
f 68/68/68 67/67/67 81/81/81
f 53/53/53 99/99/99 81/81/81
f 53/53/53 81/81/81 67/67/67
f 70/70/70 67/67/67 68/68/68
f 70/70/70 69/69/69 67/67/67
f 62/62/62 53/53/53 67/67/67
f 62/62/62 67/67/67 69/69/69
f 59/59/59 58/58/58 61/61/61
f 59/59/59 61/61/61 60/60/60
f 96/96/96 95/95/95 98/98/98
f 96/96/96 98/98/98 97/97/97
f 56/56/56 55/55/55 54/54/54
f 56/56/56 54/54/54 57/57/57
f 93/93/93 92/92/92 91/91/91
f 93/93/93 91/91/91 94/94/94
f 84/84/84 86/86/86 85/85/85
f 84/84/84 83/83/83 86/86/86
f 66/66/66 64/64/64 63/63/63
f 66/66/66 65/65/65 64/64/64
f 72/72/72 74/74/74 73/73/73
f 72/72/72 71/71/71 74/74/74
f 78/78/78 76/76/76 75/75/75
f 78/78/78 77/77/77 76/76/76

